<?xml version="1.0" standalone="no"?>
<!DOCTYPE svg PUBLIC "-//W3C//DTD SVG 20010904//EN"
 "http://www.w3.org/TR/2001/REC-SVG-20010904/DTD/svg10.dtd">
<svg version="1.0" xmlns="http://www.w3.org/2000/svg"
 width="245.000000pt" height="148.000000pt" viewBox="0 0 245.000000 148.000000"
 preserveAspectRatio="xMidYMid meet">
<metadata>
Created by potrace 1.10, written by Peter Selinger 2001-2011
</metadata>
<g transform="translate(0.000000,148.000000) scale(0.100000,-0.100000)"
fill="#000000" stroke="none">
<path d="M1160 1473 c24 -3 50 -9 57 -15 14 -12 43 -4 43 12 0 6 -28 9 -72 8
-53 -1 -61 -3 -28 -5z"/>
<path d="M1432 1468 c-7 -7 -12 -19 -12 -27 0 -12 -3 -12 -12 -3 -17 17 -28
15 -28 -6 0 -10 -6 -24 -12 -31 -11 -11 -10 -12 1 -6 8 4 17 2 22 -6 7 -11 13
-9 29 11 11 14 20 35 20 47 0 12 6 24 13 26 6 3 7 6 2 6 -6 1 -16 -4 -23 -11z"/>
<path d="M1637 1448 c6 -36 10 -44 18 -36 8 8 -6 68 -16 68 -5 0 -6 -15 -2
-32z"/>
<path d="M1797 1466 c-10 -10 -17 -12 -25 -4 -7 7 -10 2 -9 -15 2 -23 3 -23
24 -8 12 9 24 22 27 29 7 16 1 15 -17 -2z"/>
<path d="M2281 1472 c0 -7 -6 -10 -12 -6 -7 4 -9 2 -5 -7 3 -8 9 -22 12 -31 4
-10 10 -18 15 -18 5 0 9 -7 9 -15 0 -17 -16 -20 -25 -5 -8 13 -25 13 -25 0 0
-6 12 -15 26 -20 25 -10 26 -14 22 -60 -3 -27 -3 -52 0 -55 3 -3 7 -13 8 -23
6 -36 27 -103 35 -108 5 -3 9 -14 9 -24 0 -10 7 -26 17 -35 10 -10 12 -19 6
-23 -5 -4 -12 -25 -16 -47 -4 -33 -4 -36 5 -17 6 12 15 22 20 22 5 0 7 4 3 9
-3 6 3 14 12 20 10 6 12 11 6 11 -7 0 -13 7 -13 15 0 8 -4 15 -9 15 -4 0 -14
21 -21 48 -8 26 -17 49 -21 52 -10 7 -21 84 -24 169 -2 40 -7 76 -13 80 -6 3
-12 20 -15 36 -2 17 -5 24 -6 17z"/>
<path d="M1586 1424 c-3 -9 -6 -22 -6 -31 0 -13 2 -13 15 1 16 16 20 46 6 46
-5 0 -12 -7 -15 -16z"/>
<path d="M1705 1420 c-5 -9 -4 -15 3 -18 7 -2 12 -10 12 -18 0 -9 5 -12 11 -8
8 4 9 -1 4 -17 -5 -19 -4 -21 4 -9 14 20 14 26 -2 42 -8 7 -16 20 -19 28 -4
12 -6 12 -13 0z"/>
<path d="M2196 1386 c-5 -24 -2 -45 9 -66 18 -35 35 -39 35 -7 0 15 -3 18 -8
9 -6 -9 -12 -5 -22 13 -12 22 -12 30 -1 47 8 13 9 24 3 30 -6 6 -12 -3 -16
-26z"/>
<path d="M1137 1404 c-12 -12 -8 -24 8 -24 8 0 15 -9 15 -20 0 -10 9 -24 21
-30 25 -14 36 -6 20 14 -15 17 -7 36 15 36 8 0 14 5 14 10 0 7 -6 7 -20 0 -15
-8 -20 -8 -20 1 0 6 -6 9 -14 6 -7 -3 -18 -1 -23 4 -5 5 -12 6 -16 3z"/>
<path d="M2056 1395 c4 -8 10 -12 15 -9 5 3 9 -6 9 -19 0 -14 6 -39 14 -57 11
-27 14 -29 20 -14 4 9 2 20 -4 24 -6 4 -12 18 -12 31 -1 13 -7 31 -12 39 -15
20 -37 24 -30 5z"/>
<path d="M1312 1380 c-27 -26 -28 -40 -2 -40 13 0 20 7 20 18 0 10 5 23 12 30
21 21 -7 13 -30 -8z"/>
<path d="M1793 1388 c3 -9 2 -32 -3 -50 -11 -36 -3 -79 10 -58 10 15 5 108 -5
118 -5 4 -5 -1 -2 -10z"/>
<path d="M1833 1392 c-6 -4 -15 -20 -18 -35 -6 -22 -4 -26 8 -21 8 3 17 0 20
-8 2 -8 3 -7 2 2 -2 8 -6 24 -11 34 -6 16 -4 18 9 13 11 -4 17 -1 17 8 0 16
-9 19 -27 7z"/>
<path d="M2120 1386 c0 -8 -3 -23 -6 -33 -5 -15 -4 -15 5 -3 12 17 14 15 35
-30 l16 -35 -4 37 c-4 36 -46 94 -46 64z"/>
<path d="M1487 1373 c-17 -17 -6 -61 19 -78 27 -17 27 -17 20 8 -8 34 -25 77
-29 77 -2 0 -7 -3 -10 -7z"/>
<path d="M1550 1371 c0 -11 44 -61 54 -61 15 0 4 33 -16 51 -26 20 -38 24 -38
10z"/>
<path d="M1996 1353 c-4 -9 -4 -18 -1 -21 3 -3 5 0 5 7 0 6 12 0 27 -14 18
-16 29 -21 32 -13 2 7 -2 14 -9 16 -7 3 -21 13 -30 22 -16 16 -19 17 -24 3z"/>
<path d="M1373 1335 c-3 -9 -3 -18 -1 -21 9 -9 38 8 38 22 0 19 -29 18 -37 -1z"/>
<path d="M2340 1332 c0 -13 4 -21 9 -18 5 4 11 0 14 -6 2 -7 8 -9 13 -5 4 4
-2 17 -14 30 l-22 21 0 -22z"/>
<path d="M0 1316 c0 -24 2 -26 21 -16 11 7 19 13 17 14 -1 1 -11 8 -20 15 -16
12 -18 11 -18 -13z"/>
<path d="M1664 1315 c-5 -13 -8 -14 -15 -3 -7 10 -9 11 -9 0 0 -7 -4 -10 -10
-7 -5 3 -10 -1 -10 -9 0 -10 6 -13 15 -10 11 5 15 -1 15 -22 0 -23 -2 -26 -10
-14 -15 23 -13 -5 5 -65 9 -27 13 -60 10 -72 -3 -13 -1 -23 5 -23 5 0 10 7 10
15 0 8 5 15 10 15 6 0 10 -5 10 -12 0 -6 2 -9 4 -7 3 2 1 20 -4 39 -4 19 -8
27 -9 17 -2 -40 -21 -3 -21 41 l1 47 13 -30 14 -30 0 50 c0 28 1 59 3 69 5 24
-19 33 -27 11z"/>
<path d="M2181 1293 c-1 -18 3 -33 8 -33 4 0 11 -21 15 -47 4 -32 14 -54 29
-66 12 -10 16 -16 10 -12 -9 4 -11 1 -7 -9 3 -9 10 -16 15 -16 5 0 10 -15 10
-32 1 -18 3 -25 6 -15 5 18 23 24 23 7 0 -19 -23 -59 -31 -54 -5 3 -9 2 -9 -3
0 -12 19 -39 21 -30 1 4 3 12 4 17 1 6 3 13 4 18 1 4 6 0 11 -8 8 -11 9 -7 4
14 -5 21 -4 27 5 22 19 -12 12 13 -10 35 -11 11 -18 28 -16 37 4 15 5 15 6 0
1 -12 9 -18 24 -17 12 0 16 3 10 6 -7 2 -13 11 -13 19 0 8 -9 14 -20 14 -11 0
-20 4 -20 10 0 5 7 7 16 3 13 -5 15 -2 9 18 -14 46 -26 52 -45 24 l-17 -26 2
38 c0 21 -6 45 -15 56 -8 9 -18 27 -22 40 -5 18 -6 16 -7 -10z"/>
<path d="M1060 1298 c0 -9 14 -22 30 -30 17 -7 30 -17 30 -22 0 -6 4 -6 10 0
17 17 1 43 -21 37 -12 -4 -25 2 -34 13 -13 17 -14 17 -15 2z"/>
<path d="M2134 1264 c1 -23 6 -46 10 -52 4 -6 8 -24 10 -39 11 -86 54 -202 68
-181 4 7 8 9 9 3 3 -47 10 -71 21 -80 8 -5 12 -19 10 -29 -3 -14 -6 -15 -12
-6 -5 7 -10 8 -14 2 -3 -5 1 -15 9 -22 11 -9 15 -9 15 -1 0 9 5 9 22 0 24 -13
26 -18 -22 88 -18 40 -36 70 -40 68 -4 -3 -11 3 -15 13 -10 23 -16 72 -9 72 8
0 35 -28 34 -35 -1 -3 1 -11 3 -18 3 -8 7 -7 12 5 7 17 -25 58 -45 58 -14 0
-12 17 3 24 6 3 2 3 -10 0 -19 -4 -22 -1 -21 23 1 16 -4 38 -9 48 -6 11 -9 29
-7 41 2 12 -3 30 -11 40 -13 17 -14 16 -11 -22z"/>
<path d="M2026 1282 c-4 -7 -5 -16 -2 -19 3 -3 1 -12 -6 -20 -8 -11 -7 -12 5
-8 11 5 17 -3 22 -34 4 -23 11 -43 16 -47 5 -3 9 -13 9 -23 0 -10 7 -18 15
-18 20 0 19 4 -5 29 -14 15 -20 36 -20 65 0 25 -4 42 -9 38 -5 -3 -11 7 -13
22 -2 20 -6 24 -12 15z"/>
<path d="M2070 1285 c0 -2 9 -22 20 -43 11 -21 21 -57 23 -79 2 -41 8 -48 14
-15 1 9 -2 30 -7 46 -7 20 -7 33 1 43 9 11 9 12 -3 8 -11 -4 -18 2 -22 19 -3
14 -11 26 -16 26 -6 0 -10 -2 -10 -5z"/>
<path d="M1186 1262 c-3 -5 8 -22 24 -37 28 -27 30 -27 30 -8 0 12 6 24 13 26
6 3 2 6 -10 6 -13 1 -23 6 -23 11 0 12 -27 13 -34 2z"/>
<path d="M1742 1213 c-1 -29 -6 -53 -12 -53 -12 0 -11 -52 1 -95 6 -22 7 -15
3 24 -3 34 -1 57 6 61 7 4 10 28 7 61 l-3 54 -2 -52z"/>
<path d="M1801 1240 c0 -15 -5 -30 -11 -36 -11 -11 -2 -54 12 -54 5 0 5 8 -1
18 -7 13 -7 22 0 29 6 6 9 23 6 39 -4 27 -4 27 -6 4z"/>
<path d="M1332 1238 c-21 -21 -15 -40 11 -33 34 11 44 24 27 35 -20 13 -24 12
-38 -2z"/>
<path d="M1971 1237 c-1 -9 11 -45 25 -80 14 -34 27 -69 29 -78 5 -22 28 -59
37 -59 12 0 10 18 -2 25 -6 4 -8 14 -6 23 3 10 1 31 -4 47 -10 30 -10 30 -5
-5 5 -35 4 -35 -10 -10 -8 14 -12 33 -8 44 3 11 1 16 -5 12 -12 -7 -35 62 -25
77 3 6 1 7 -5 3 -5 -3 -13 0 -15 6 -3 8 -6 6 -6 -5z"/>
<path d="M1860 1223 c0 -13 4 -23 9 -23 5 0 14 -24 19 -52 l10 -53 1 45 c0 30
-6 55 -19 75 -18 28 -20 28 -20 8z"/>
<path d="M1924 1198 c4 -20 3 -38 -1 -40 -4 -3 -3 -4 3 -2 16 3 34 -16 34 -37
0 -9 11 -28 25 -43 30 -32 33 -25 5 11 -11 14 -20 31 -20 38 0 6 -12 34 -26
61 -26 49 -26 49 -20 12z"/>
<path d="M1128 1208 c18 -18 15 -46 -5 -51 -10 -2 -6 -3 9 -1 l27 3 -20 -20
c-22 -22 -19 -34 10 -42 15 -4 20 2 24 27 3 17 0 37 -6 44 -5 7 -7 15 -4 19
10 9 -13 33 -31 33 -12 0 -13 -3 -4 -12z"/>
<path d="M0 1198 c0 -7 13 -14 32 -15 34 -3 28 10 -9 22 -16 4 -23 2 -23 -7z"/>
<path d="M240 1172 c0 -34 14 -43 24 -15 4 9 0 23 -9 32 -13 14 -15 12 -15
-17z"/>
<path d="M1267 1184 c-3 -4 -2 -15 3 -24 12 -22 54 -15 46 7 -3 8 -6 17 -6 19
0 6 -36 5 -43 -2z"/>
<path d="M1380 1155 c-13 -14 -22 -26 -19 -27 42 -26 52 -29 63 -18 8 8 5 12
-12 16 -24 7 -30 30 -9 37 6 2 9 7 6 11 -3 3 -16 -5 -29 -19z"/>
<path d="M1851 1129 c-1 -15 7 -46 18 -69 15 -35 19 -38 24 -21 3 12 1 24 -4
27 -5 3 -6 10 -3 16 4 7 2 8 -4 4 -7 -4 -14 4 -18 21 -10 45 -12 50 -13 22z"/>
<path d="M1045 1111 c-7 -12 29 -33 39 -24 3 3 6 12 6 20 0 15 -36 18 -45 4z"/>
<path d="M2116 1098 c3 -4 -1 -21 -8 -36 -8 -15 -12 -35 -10 -45 3 -16 6 -15
18 8 8 15 11 31 8 36 -3 5 7 9 22 9 27 0 27 0 8 18 -19 19 -48 26 -38 10z"/>
<path d="M1304 1077 c0 -13 7 -17 25 -15 35 4 37 25 4 30 -23 3 -29 0 -29 -15z"/>
<path d="M1560 1083 c0 -8 20 -22 44 -32 27 -12 45 -27 49 -41 6 -22 -13 -37
-33 -25 -5 3 -10 -1 -10 -10 0 -11 7 -15 23 -13 20 3 22 -1 20 -36 -2 -21 -10
-52 -18 -69 -8 -17 -12 -28 -9 -24 4 4 13 -1 20 -11 12 -16 13 -16 15 3 1 11
1 29 0 40 -2 17 0 17 8 5 9 -12 11 -10 11 12 0 14 6 29 13 31 7 3 4 6 -7 6
-16 1 -18 8 -14 59 l4 58 -38 16 c-21 9 -38 23 -38 32 0 9 -8 14 -20 13 -11
-1 -20 -7 -20 -14z"/>
<path d="M1140 1054 c0 -16 5 -24 13 -22 18 7 20 35 2 41 -11 5 -15 0 -15 -19z"/>
<path d="M1397 1062 c-15 -16 -15 -21 -2 -38 8 -10 15 -27 15 -36 0 -20 36
-42 56 -34 8 3 14 19 14 36 0 23 -4 30 -20 30 -15 0 -22 9 -26 30 -7 35 -15
37 -37 12z"/>
<path d="M1970 1066 c0 -3 5 -17 12 -33 6 -15 14 -48 19 -73 7 -43 7 -43 6 15
-2 42 -7 65 -19 78 -10 9 -18 15 -18 13z"/>
<path d="M898 1025 c-3 -14 0 -32 7 -41 10 -15 13 -13 18 16 4 17 4 36 1 41
-10 16 -22 9 -26 -16z"/>
<path d="M763 998 c2 -40 4 -43 30 -44 36 -1 62 18 54 40 -6 16 -8 16 -23 1
-21 -21 -39 -14 -39 15 0 13 -5 25 -12 27 -7 3 -11 -10 -10 -39z"/>
<path d="M667 1010 c-3 -13 -13 -20 -30 -20 -14 0 -33 -3 -42 -7 -14 -5 -16
-2 -10 17 6 17 4 21 -6 14 -8 -5 -22 -7 -31 -6 -13 3 -18 -4 -18 -23 l0 -26
78 7 c89 7 113 21 84 48 -19 16 -20 16 -25 -4z"/>
<path d="M1080 1020 c0 -32 70 -65 85 -39 11 17 -3 23 -20 9 -12 -10 -18 -10
-30 0 -8 7 -15 19 -15 26 0 8 -4 14 -10 14 -5 0 -10 -4 -10 -10z"/>
<path d="M1280 1000 c0 -5 -18 -13 -40 -16 -62 -10 -47 -20 27 -19 56 1 69 4
71 18 2 12 -1 15 -12 11 -9 -3 -16 -1 -16 5 0 6 -7 11 -15 11 -8 0 -15 -4 -15
-10z"/>
<path d="M2416 993 c4 -33 16 -63 25 -63 13 0 11 13 -7 48 -18 36 -22 39 -18
15z"/>
<path d="M187 973 c-11 -12 -19 -13 -36 -4 -23 13 -26 9 -11 -18 11 -22 52
-20 76 3 17 18 55 21 70 7 5 -5 23 -11 39 -13 24 -2 31 1 33 19 3 20 -1 21
-76 21 -58 0 -84 -4 -95 -15z"/>
<path d="M2284 976 c-8 -8 -4 -28 13 -71 27 -66 53 -102 53 -73 0 25 -11 49
-20 43 -4 -3 -10 4 -13 15 -3 11 -1 23 4 26 5 3 9 0 9 -6 0 -6 5 -8 10 -5 6 3
10 11 10 16 0 6 -4 7 -10 4 -5 -3 -10 0 -10 7 0 10 -3 9 -10 -2 -15 -24 -24
-2 -11 26 6 15 9 29 6 32 -3 3 -5 -1 -5 -9 0 -9 -3 -10 -8 -3 -5 8 -10 8 -18
0z"/>
<path d="M2140 942 c0 -6 5 -14 10 -17 6 -3 10 -14 10 -25 0 -10 7 -20 15 -24
8 -3 15 -1 15 4 0 6 -4 10 -10 10 -5 0 -10 8 -10 19 0 10 -7 24 -15 31 -9 8
-15 9 -15 2z"/>
<path d="M1105 918 c-20 -20 -20 -20 0 -17 11 2 26 0 33 -5 21 -13 24 -1 5 21
-18 20 -18 20 -38 1z"/>
<path d="M1718 895 c6 -64 9 -67 13 -12 2 25 1 43 -3 41 -3 -2 -8 2 -11 8 -2
7 -2 -9 1 -37z"/>
<path d="M1970 890 c0 -29 2 -51 4 -49 8 8 10 88 3 95 -4 4 -7 -17 -7 -46z"/>
<path d="M1202 912 c2 -12 14 -17 43 -18 24 -1 29 0 13 3 -16 2 -28 8 -28 13
0 4 -7 11 -16 14 -11 4 -14 1 -12 -12z"/>
<path d="M1380 913 c0 -7 -7 -13 -15 -13 -8 0 -15 -7 -15 -16 0 -14 2 -14 16
1 12 12 19 13 30 4 8 -6 20 -9 28 -6 8 3 17 1 19 -6 3 -9 9 -9 25 0 17 10 21
9 26 -4 8 -19 19 -10 23 18 3 19 0 21 -29 15 -54 -10 -88 -7 -100 9 -5 6 -8 5
-8 -2z"/>
<path d="M1885 890 c3 -48 4 -50 15 -50 13 0 12 19 -4 55 l-14 30 3 -35z"/>
<path d="M1564 888 c1 -13 6 -22 9 -20 4 1 17 3 30 3 16 1 17 3 5 6 -10 2 -15
10 -11 19 3 9 -2 14 -16 14 -16 0 -20 -5 -17 -22z"/>
<path d="M1840 896 c0 -8 4 -17 8 -20 13 -8 15 -126 2 -126 -5 0 -10 -7 -10
-15 0 -9 -7 -18 -16 -22 -8 -3 -13 -12 -10 -19 3 -8 2 -13 -2 -12 -22 6 -51
-16 -57 -43 -13 -57 -12 -74 6 -93 17 -18 18 -18 16 5 -1 13 -8 30 -17 37 -13
11 -13 12 0 10 10 -2 16 7 18 25 2 19 8 27 17 24 7 -3 22 3 33 13 17 17 21 17
26 4 9 -23 7 -31 -3 -16 -10 17 -21 -20 -16 -58 2 -14 4 -31 4 -37 1 -7 7 -13
15 -13 9 0 13 8 10 23 l-5 22 17 -22 c20 -28 29 -29 31 -3 1 11 -6 22 -18 25
-10 4 -19 10 -19 14 0 13 26 32 33 24 7 -7 11 19 7 52 -3 29 8 14 31 -41 18
-45 20 -30 4 24 -6 17 -4 22 6 20 8 -2 13 2 12 9 -3 15 25 25 33 11 4 -6 -1
-17 -11 -25 -16 -11 -16 -13 -3 -13 9 0 19 6 21 13 3 6 6 2 6 -11 1 -13 -3
-20 -9 -17 -14 8 -13 -8 1 -22 9 -9 6 -11 -12 -7 -24 5 -24 4 -2 -5 16 -7 21
-15 16 -27 -4 -11 -2 -15 4 -11 14 9 23 46 12 52 -4 3 -4 16 1 30 7 17 5 27
-6 36 -9 7 -13 20 -11 30 3 9 0 23 -5 30 -8 11 -8 10 -4 -4 5 -17 5 -17 -19 0
-13 10 -25 21 -25 26 0 4 -5 7 -11 7 -6 0 -9 -7 -5 -15 7 -18 -5 -20 -22 -3
-9 9 -12 9 -12 0 0 -7 -7 -12 -16 -12 -12 0 -15 11 -13 53 1 28 -4 64 -10 80
-11 29 -21 35 -21 13z m123 -160 c3 -7 -1 -24 -10 -36 -20 -29 -37 -12 -24 23
11 29 26 35 34 13z m-53 -26 c0 -12 -9 -24 -22 -29 -29 -11 -31 -9 -19 23 12
31 41 35 41 6z"/>
<path d="M1527 873 c-3 -16 -1 -32 5 -38 8 -7 9 -5 5 7 -3 10 -2 20 3 23 12 8
13 35 1 35 -5 0 -11 -12 -14 -27z"/>
<path d="M1744 885 c-4 -8 -3 -30 0 -49 5 -28 3 -34 -14 -39 -13 -3 -20 0 -20
10 0 8 -5 11 -10 8 -8 -5 -7 -11 1 -21 6 -8 9 -18 5 -21 -4 -4 -12 -1 -17 7
-9 13 -10 12 -5 -2 3 -11 -4 -24 -19 -37 -24 -18 -35 -39 -15 -26 6 3 10 2 10
-4 0 -5 11 -8 25 -6 17 1 29 -4 36 -16 5 -11 15 -19 21 -19 7 0 7 4 0 13 -6 7
-7 18 -2 26 4 8 6 20 3 28 -6 14 2 16 58 13 37 -1 56 11 44 31 -5 7 -15 5 -32
-6 -32 -22 -38 -14 -38 48 1 29 -1 44 -3 35 -6 -31 -25 -20 -20 12 5 32 1 39
-8 15z m-7 -132 c-7 -6 -25 -14 -42 -18 -27 -5 -28 -4 -11 7 10 7 26 21 35 30
11 13 17 15 23 5 4 -6 2 -17 -5 -24z"/>
<path d="M513 870 c-48 -7 -64 -17 -44 -29 15 -10 49 -3 70 13 10 8 15 8 18 0
2 -6 15 -9 29 -6 14 2 23 10 21 16 -4 13 -34 15 -94 6z"/>
<path d="M87 853 c33 -17 51 -13 38 6 -3 6 -21 11 -38 10 l-32 0 32 -16z"/>
<path d="M164 854 c3 -9 6 -18 6 -20 0 -2 6 -4 14 -4 20 0 28 27 10 34 -26 10
-36 7 -30 -10z"/>
<path d="M357 854 c-3 -3 -3 -12 0 -20 6 -16 33 -19 33 -4 0 6 12 10 26 10 14
0 23 4 19 10 -7 11 -68 14 -78 4z"/>
<path d="M812 823 c-14 -22 -21 -46 -19 -62 3 -23 4 -22 6 6 1 23 5 31 15 27
17 -6 31 13 31 44 1 30 -6 27 -33 -15z"/>
<path d="M1357 853 c-4 -3 -7 -13 -7 -22 0 -11 3 -11 16 5 8 10 13 13 9 7 -4
-8 0 -13 9 -13 9 0 16 7 16 15 0 15 -31 21 -43 8z"/>
<path d="M1045 830 c-25 -27 -12 -37 14 -11 22 22 37 28 26 11 -10 -16 11 -12
25 5 20 24 -43 20 -65 -5z"/>
<path d="M1314 842 c5 -8 0 -12 -13 -12 -17 0 -21 -6 -21 -32 0 -23 3 -29 9
-19 5 8 7 21 4 30 -3 10 1 7 10 -5 16 -21 13 -64 -4 -64 -5 0 -9 -4 -9 -10 0
-5 9 -10 20 -10 12 0 20 -7 20 -17 0 -13 3 -14 12 -5 16 16 28 15 28 -1 0 -8
-11 -19 -25 -25 -34 -16 -38 -15 -31 3 3 9 0 15 -9 15 -8 0 -14 -6 -12 -12 1
-7 -7 -13 -18 -13 -11 0 -21 6 -21 13 -1 6 -2 15 -3 20 0 4 -12 7 -25 7 -13 0
-22 -3 -19 -7 7 -13 -8 -29 -20 -21 -23 14 -42 8 -70 -22 -22 -24 -31 -27 -45
-19 -9 6 -17 21 -17 32 0 12 -4 24 -8 28 -4 4 -7 -2 -7 -14 0 -24 -19 -29 -38
-10 -16 16 -15 6 3 -28 9 -18 15 -23 15 -12 0 9 7 15 15 14 19 -3 32 -16 16
-16 -7 0 -11 -7 -8 -14 4 -10 1 -13 -7 -10 -9 3 -16 -5 -20 -23 -11 -41 -56
-86 -73 -72 -11 10 -10 14 4 24 15 11 15 13 -8 25 -21 12 -23 12 -11 -3 11
-13 10 -16 -7 -22 -12 -3 -25 -4 -30 -1 -5 4 -11 3 -14 -1 -2 -5 -2 -1 1 7 3
8 5 25 5 37 1 18 4 20 19 12 10 -6 23 -7 29 -3 6 3 16 -1 22 -9 9 -11 17 -12
32 -3 11 6 20 17 19 24 -4 33 -6 36 -14 17 -8 -19 -9 -19 -9 2 -1 25 -16 38
-27 22 -3 -6 0 -15 7 -20 20 -12 8 -17 -28 -12 -22 4 -33 11 -33 22 -1 13 -3
13 -15 -3 -8 -11 -14 -33 -13 -49 2 -19 -4 -32 -16 -39 -15 -8 -16 -12 -5 -19
11 -7 10 -9 -3 -9 -14 0 -17 -7 -13 -40 2 -22 0 -40 -5 -40 -18 0 -18 -46 0
-77 12 -20 15 -35 9 -39 -11 -6 -23 2 -25 17 -1 5 -2 12 -3 17 0 4 -15 7 -32
7 -48 0 -60 27 -26 61 21 21 30 24 41 15 16 -14 23 -5 21 24 -1 11 -2 30 -3
43 -1 15 -9 22 -24 23 -13 0 -17 3 -10 6 8 3 5 11 -10 25 -13 11 -17 17 -10
13 7 -4 19 -1 27 5 8 7 22 10 30 6 17 -6 21 9 5 19 -5 3 -10 15 -10 26 0 10
-4 19 -9 19 -4 0 -6 -12 -3 -26 3 -19 1 -25 -7 -20 -6 4 -11 3 -11 -2 0 -6 -9
-8 -20 -5 -16 4 -20 0 -20 -20 0 -14 5 -27 11 -29 7 -2 5 -9 -5 -17 -14 -12
-16 -9 -16 23 0 21 -4 35 -10 31 -5 -3 -7 9 -5 30 3 24 1 34 -5 30 -6 -4 -8
-15 -5 -25 3 -10 0 -22 -6 -26 -9 -5 -10 -2 -6 9 3 10 2 17 -2 17 -5 0 -4 13
2 29 6 17 14 28 18 25 4 -2 9 5 12 16 3 11 1 20 -4 20 -5 0 -9 -4 -9 -10 0 -5
-4 -10 -10 -10 -5 0 -10 8 -10 18 0 9 -5 24 -11 32 -8 12 -9 10 -4 -7 5 -17 2
-23 -9 -23 -9 0 -16 -4 -16 -10 0 -5 -5 -10 -11 -10 -6 0 -8 7 -5 16 3 8 2 12
-4 9 -6 -3 -10 -12 -10 -20 0 -14 -19 -24 -36 -18 -6 2 -9 18 -8 36 2 17 1 25
-2 16 -6 -21 -54 -32 -54 -13 0 8 -6 14 -14 14 -21 0 -28 -17 -10 -24 24 -9 8
-24 -21 -18 -14 2 -25 0 -25 -7 0 -6 -19 -9 -50 -7 -27 1 -50 -1 -50 -6 0 -4
6 -8 13 -8 7 -1 5 -6 -6 -14 -16 -13 -16 -14 5 -19 15 -4 19 -10 13 -16 -11
-11 -95 6 -95 19 0 5 14 13 30 19 41 14 38 19 -10 17 -34 -2 -72 -16 -42 -16
7 0 9 -11 5 -30 -5 -25 -3 -29 11 -24 9 3 16 1 16 -6 0 -7 8 -9 21 -5 16 5 19
4 14 -5 -4 -7 -2 -16 6 -20 33 -21 2 -58 -37 -43 -23 9 -16 23 14 24 25 2 26
2 3 6 -19 4 -21 7 -10 15 11 7 9 9 -8 5 -12 -3 -25 0 -28 7 -3 6 -3 1 -1 -11
2 -12 -2 -27 -10 -34 -15 -13 -48 -4 -39 10 3 5 1 12 -4 15 -11 7 -2 46 10 46
5 0 9 -5 9 -12 0 -9 3 -9 12 0 10 10 10 15 -2 22 -10 7 -11 10 -2 10 6 0 12 5
12 10 0 6 -9 10 -20 10 -11 0 -20 5 -20 12 0 6 -3 9 -6 5 -4 -3 -13 1 -21 9
-8 8 -19 12 -24 9 -5 -4 -9 -2 -9 3 0 6 -10 8 -21 5 -19 -5 -16 -9 22 -27 45
-22 63 -46 34 -46 -11 0 -15 5 -12 14 6 14 -12 26 -39 26 -7 0 -16 -11 -20
-25 -3 -14 -10 -23 -14 -20 -5 3 -11 1 -15 -5 -3 -5 -2 -10 4 -10 6 0 8 -8 5
-17 -3 -10 5 -1 17 20 13 20 29 37 36 37 16 0 16 1 2 -39 -8 -24 -14 -29 -20
-20 -7 11 -11 10 -22 -5 -9 -13 -19 -16 -28 -11 -11 7 -11 5 1 -10 13 -17 13
-18 -1 -13 -15 6 -15 3 -4 -20 7 -15 15 -45 18 -67 3 -22 3 -34 0 -27 -2 6 -9
12 -13 12 -15 0 2 -72 22 -92 10 -10 18 -24 18 -31 0 -7 9 -18 21 -25 12 -8
18 -19 15 -28 -4 -9 1 -14 14 -14 24 0 26 15 4 24 -17 7 -11 21 8 21 6 0 13 7
15 15 4 12 3 12 -5 2 -7 -11 -10 -11 -15 2 -9 22 -38 21 -31 -2 5 -14 4 -14
-6 2 -10 14 -10 20 0 26 9 6 9 9 -1 13 -8 4 -1 3 15 0 17 -3 27 -2 23 4 -3 5
15 9 44 9 41 0 49 -3 49 -18 0 -20 -16 -25 -22 -6 -3 9 -6 9 -12 0 -4 -7 -2
-12 4 -12 6 0 8 -5 4 -12 -5 -8 -2 -9 9 -5 9 3 19 2 22 -3 4 -6 1 -11 -4 -11
-6 -1 -15 -3 -21 -4 -5 -1 -14 -3 -20 -4 -5 0 -10 -5 -10 -11 0 -5 7 -7 15 -4
19 8 19 -1 -1 -30 -15 -23 -14 -24 16 -31 17 -4 29 -12 27 -18 -3 -7 -11 -10
-18 -9 -8 2 -25 6 -39 9 -24 4 -24 3 -6 -10 19 -14 19 -14 0 -25 -15 -9 -17
-13 -6 -23 6 -7 12 -21 12 -31 0 -10 3 -19 8 -19 51 -8 62 -7 62 7 0 8 5 12
10 9 6 -3 10 -2 10 4 0 5 -4 13 -10 16 -5 3 -10 13 -10 22 0 12 3 13 13 4 8
-6 17 -8 20 -4 12 12 7 22 -14 28 -11 4 -18 12 -17 17 5 15 41 19 49 6 4 -6
11 -2 19 12 6 12 10 23 8 24 -12 10 -58 14 -63 6 -3 -5 -17 -10 -31 -10 -22 0
-24 3 -18 23 8 27 4 23 32 31 16 6 22 3 22 -8 0 -14 3 -14 20 -4 11 7 16 14
10 16 -13 5 -13 52 0 52 6 0 10 9 10 19 0 26 13 33 44 25 21 -5 24 -9 16 -24
-7 -13 -6 -20 3 -23 9 -4 8 -8 -3 -16 -8 -6 -10 -11 -4 -11 6 0 21 -9 34 -20
17 -15 19 -20 7 -20 -8 0 -18 -6 -20 -12 -4 -10 -8 -9 -16 2 -10 13 -11 13
-11 0 0 -8 -3 -26 -7 -40 -6 -24 -5 -24 13 -9 10 9 29 20 42 23 13 5 22 16 23
29 1 20 2 20 12 -5 11 -23 15 -24 30 -13 19 14 24 30 5 19 -7 -5 -8 -3 -2 7 4
8 10 23 11 33 4 25 14 35 20 18 7 -18 23 -4 23 19 0 11 4 18 9 14 5 -3 12 3
14 12 4 17 5 17 6 1 0 -10 6 -18 11 -18 10 0 8 25 -5 65 -4 14 -2 12 9 -5 8
-14 15 -39 16 -55 0 -24 4 -31 20 -31 16 0 19 5 14 21 -4 11 -12 23 -18 27 -6
4 -7 10 -4 14 4 4 3 15 -3 25 -6 13 -6 19 1 19 5 0 10 -7 10 -15 0 -18 -3 -17
36 -6 l32 9 8 -52 c4 -28 8 -62 9 -75 0 -13 9 -29 18 -36 9 -7 17 -21 18 -31
0 -11 3 -14 6 -6 4 10 8 10 19 1 12 -10 13 -9 8 5 -3 9 -1 16 5 16 6 0 11 -4
11 -10 0 -6 9 -6 23 -1 13 5 36 7 53 5 l29 -4 -32 15 c-21 10 -33 22 -33 35 0
13 -5 18 -15 14 -12 -5 -13 -9 -4 -20 7 -8 9 -18 5 -21 -4 -4 -10 -2 -14 4 -5
8 -13 9 -22 3 -24 -16 -40 -11 -40 10 0 11 -4 20 -8 20 -5 0 -9 7 -9 15 0 8 4
15 8 15 4 0 9 9 11 20 l3 21 17 -21 c17 -19 17 -20 -2 -20 -11 0 -20 -7 -20
-16 0 -8 3 -14 8 -12 4 2 19 10 34 18 24 11 30 11 45 -2 10 -8 37 -23 59 -33
38 -16 41 -21 37 -48 -4 -27 -3 -29 11 -18 8 7 20 10 26 6 8 -5 14 13 12 36
-1 4 7 14 18 24 25 23 88 27 100 6 7 -11 9 -12 10 -2 0 7 -11 27 -25 43 -20
24 -23 33 -14 44 15 18 30 18 23 -1 -3 -8 5 -36 19 -62 14 -26 28 -56 31 -66
3 -10 11 -15 16 -12 6 4 9 1 8 -6 -2 -6 3 -14 11 -17 9 -3 11 0 6 8 -6 9 -3 9
14 1 16 -9 21 -9 21 1 0 9 3 9 10 -2 6 -9 10 -10 10 -3 0 6 -4 15 -10 18 -5 3
-9 23 -9 43 l2 37 7 -35 c7 -35 7 -35 9 -5 1 17 8 55 16 85 19 69 19 80 0 80
-10 0 -15 10 -15 29 0 16 -5 42 -11 58 -15 37 -20 75 -8 68 5 -3 6 0 3 8 -3 8
2 20 10 27 13 10 17 9 22 -5 4 -10 1 -20 -6 -25 -11 -7 -10 -11 3 -24 12 -13
21 -14 43 -6 27 11 47 5 29 -8 -18 -13 -15 -31 4 -27 13 2 18 -2 16 -18 0 -12
3 -30 7 -39 6 -12 5 -18 -4 -18 -8 -1 -5 -6 6 -15 11 -8 17 -17 14 -20 -3 -3
-12 1 -21 9 -8 8 -18 12 -22 8 -4 -4 -3 2 3 13 9 18 7 21 -13 23 -42 3 -37
-16 12 -48 31 -20 55 -46 67 -72 14 -29 21 -36 27 -26 13 19 11 28 -6 28 -8 0
-15 7 -15 15 0 8 5 15 10 15 6 0 10 -6 10 -12 0 -20 20 14 20 35 0 9 -5 17
-11 17 -6 0 -8 -7 -5 -16 5 -12 1 -14 -17 -8 -30 9 -34 14 -18 23 11 7 11 10
-1 17 -8 5 -18 28 -21 50 -6 36 -4 42 13 47 11 3 23 1 26 -4 3 -5 14 -9 26 -9
17 0 19 4 13 23 -4 12 -7 30 -8 40 -1 9 -5 17 -9 17 -4 0 -8 4 -8 10 0 5 3 9
8 9 4 -1 21 2 39 6 23 5 31 13 30 26 -1 10 -4 19 -8 19 -19 0 -39 -14 -39 -26
0 -8 -7 -14 -16 -14 -11 0 -13 6 -9 19 4 13 0 23 -12 29 -16 9 -15 13 10 38
28 27 34 44 18 44 -17 0 -24 42 -10 51 11 7 11 9 1 9 -9 0 -11 7 -7 23 6 21 5
21 -6 2 -7 -11 -17 -23 -23 -27 -8 -6 -6 -11 4 -18 13 -8 13 -10 -2 -10 -21 0
-32 -16 -17 -26 8 -4 9 -3 5 4 -4 7 -2 12 3 12 6 0 11 -6 11 -12 0 -10 2 -10
9 0 6 11 9 9 13 -6 4 -15 1 -18 -14 -14 -17 4 -19 1 -13 -18 5 -16 4 -21 -6
-18 -8 3 -14 11 -14 19 -1 24 -21 53 -29 40 -4 -6 -2 -11 4 -11 6 0 9 -4 6 -9
-9 -13 -46 -1 -46 15 0 8 7 14 15 14 8 0 15 5 15 10 0 6 9 19 20 30 12 12 15
20 7 20 -7 0 -21 -9 -30 -21 -18 -20 -19 -20 -32 -2 -9 12 -10 22 -4 30 7 7 6
14 -2 19 -8 4 -9 3 -5 -4z m-759 -161 c-3 -5 3 -12 14 -16 11 -3 25 -13 33
-22 12 -15 10 -16 -14 -9 -17 4 -28 2 -28 -4 0 -5 5 -10 11 -10 5 0 8 -4 4 -9
-3 -6 -14 -8 -25 -6 -11 2 -23 -1 -26 -7 -5 -7 0 -9 14 -6 23 6 31 -7 10 -15
-7 -3 -3 -6 10 -6 21 -1 33 -21 11 -21 -5 0 -7 -5 -3 -11 4 -8 9 -8 17 0 9 9
8 17 -1 32 -8 12 -12 22 -10 23 61 35 84 30 47 -11 -13 -14 -18 -23 -11 -19 7
4 12 1 12 -9 0 -10 -5 -13 -11 -9 -8 5 -10 -3 -7 -25 4 -27 2 -30 -15 -25 -11
3 -26 7 -33 8 -7 1 -16 5 -20 9 -4 4 -13 -1 -21 -11 -12 -16 -13 -15 -6 3 6
17 5 18 -9 7 -13 -10 -22 -11 -37 -2 -16 8 -19 8 -16 -2 6 -16 -44 -48 -75
-48 -34 0 -18 25 16 26 42 1 58 12 43 30 -6 7 -16 11 -22 7 -6 -4 -8 0 -5 8 4
10 -2 15 -20 14 -14 0 -27 6 -30 14 -3 8 0 11 6 7 6 -4 23 -3 39 0 23 6 24 8
9 14 -12 4 -20 18 -22 38 -3 24 0 30 10 26 8 -3 12 -12 9 -21 -3 -8 0 -19 7
-23 7 -4 14 -18 15 -31 1 -13 3 -30 4 -37 0 -7 6 -10 12 -6 6 3 8 17 4 31 -5
20 -2 24 11 21 10 -2 19 -9 22 -17 3 -8 0 -11 -7 -7 -6 4 -11 4 -11 -1 0 -4
20 -8 45 -9 54 -1 59 11 10 20 -24 5 -39 15 -47 31 -9 19 -17 24 -37 20 -14
-3 -20 -2 -13 1 6 3 12 12 12 20 0 8 9 14 20 14 11 0 20 -6 20 -14 0 -7 8 -20
18 -27 15 -13 16 -12 3 4 -10 12 -10 17 -2 17 8 0 7 6 -3 16 -22 21 -20 27 4
12 11 -7 20 -15 20 -18 0 -3 9 -6 20 -6 11 0 20 6 20 13 0 7 -3 12 -7 12 -29
-5 -36 2 -17 16 22 16 38 20 29 6z m109 -3 c-5 -8 -2 -9 11 -5 18 8 18 9 2
-60 -5 -21 -14 -25 -20 -9 -4 9 1 22 9 31 14 13 12 14 -15 9 -37 -8 -41 7 -8
29 27 20 30 20 21 5z m536 -34 c0 -8 -4 -14 -10 -14 -5 0 -10 -4 -10 -10 0 -5
7 -10 15 -10 8 0 15 8 15 17 0 15 2 14 16 -3 15 -19 15 -18 11 3 -6 26 9 41
25 25 11 -11 -16 -57 -39 -66 -17 -7 -64 17 -59 31 3 6 -2 14 -10 17 -28 11
-16 33 16 28 17 -2 30 -10 30 -18z m214 0 c18 -17 13 -34 -10 -34 -8 0 -14 -4
-14 -10 0 -5 4 -10 9 -10 5 0 19 -14 32 -31 17 -24 19 -33 9 -42 -10 -9 -12
-8 -7 5 3 9 0 19 -9 22 -8 3 -14 -1 -14 -9 0 -8 -9 -15 -20 -15 -21 0 -29 30
-7 31 6 0 3 4 -8 9 -17 7 -17 9 -2 9 9 1 17 6 17 12 0 7 -10 5 -25 -5 -28 -18
-65 -21 -65 -5 0 5 5 7 10 4 6 -3 10 -1 10 4 0 6 3 10 8 9 4 -1 17 1 29 6 18
6 21 12 16 37 -6 33 14 40 41 13z m-84 -25 c0 -12 -7 -19 -19 -19 -26 0 -36
17 -21 35 15 18 40 8 40 -16z m-217 -11 c3 -10 7 -10 19 0 13 10 17 10 22 -3
3 -8 12 -15 21 -15 17 0 19 -9 6 -29 -7 -10 -12 -11 -27 -1 -18 11 -18 11 -1
6 12 -4 17 -2 15 6 -3 7 -12 14 -21 16 -13 3 -17 -4 -17 -27 0 -21 4 -29 13
-25 21 8 65 -13 77 -36 9 -18 8 -25 -6 -41 -9 -10 -22 -19 -29 -19 -23 0 -75
-31 -75 -45 0 -8 -13 -23 -29 -34 l-29 -21 -6 23 c-3 12 -1 24 4 25 6 2 10 10
10 18 0 8 9 14 19 14 20 0 81 51 81 68 0 5 10 12 22 15 35 9 14 19 -43 21 -56
1 -70 14 -44 39 19 20 19 27 0 27 -16 0 -20 12 -8 23 10 11 21 8 26 -5z m-43
-63 c-7 -9 -17 -12 -22 -7 -12 12 -19 54 -8 47 5 -3 12 0 16 7 5 8 10 5 17
-10 7 -15 6 -26 -3 -37z m-367 12 c23 -8 22 -27 -2 -27 -10 0 -24 -7 -31 -15
-10 -12 -8 -16 13 -24 29 -11 38 -37 23 -66 -6 -11 -11 -21 -12 -23 -1 -1 -8
0 -17 4 -9 3 -14 11 -11 19 3 7 -5 14 -20 17 -14 3 -26 2 -26 -1 0 -11 -54
-39 -67 -34 -7 3 -13 -2 -13 -11 0 -19 26 -22 33 -3 2 6 8 9 12 5 12 -11 -4
-46 -24 -51 -15 -3 -20 2 -25 25 -5 27 -9 30 -36 26 -29 -4 -31 -3 -25 24 5
22 3 27 -8 22 -8 -3 -17 -18 -21 -35 -4 -20 -11 -29 -25 -29 -23 0 -40 22 -23
28 7 2 12 10 12 18 0 8 5 14 10 14 6 0 10 6 10 13 0 7 9 18 20 24 17 11 21 10
30 -8 10 -17 14 -18 27 -7 18 14 63 19 63 6 0 -18 56 -7 68 13 8 12 9 18 2 14
-7 -5 -9 2 -4 22 8 33 35 67 43 55 3 -5 14 -11 24 -15z m-552 -37 c6 0 8 4 5
8 -2 4 10 9 27 10 24 2 28 0 17 -8 -13 -9 -13 -11 0 -21 12 -8 10 -9 -7 -4
-13 3 -23 2 -23 -3 0 -14 -58 -1 -64 15 -3 8 -2 11 3 8 5 -3 13 0 17 7 6 9 9
9 12 0 2 -7 8 -12 13 -12z m894 -9 c3 -11 13 -22 22 -25 12 -5 14 -1 10 15 -4
15 -3 19 4 12 6 -6 7 -23 3 -39 -6 -25 -8 -26 -15 -9 -5 13 -8 15 -8 5 -1 -12
-3 -12 -10 -2 -6 10 -13 11 -34 1 -15 -7 -27 -16 -27 -21 0 -4 -9 -8 -19 -8
-26 0 -51 -10 -51 -21 0 -4 7 -6 15 -3 22 9 33 -46 11 -61 -19 -14 -21 -33 -3
-32 35 1 47 -5 47 -23 0 -11 -7 -20 -15 -20 -8 0 -15 5 -15 11 0 6 -9 8 -20 4
-13 -4 -20 -2 -20 6 0 8 -6 7 -18 -4 -14 -13 -21 -14 -30 -5 -16 16 -15 35 1
42 9 5 9 7 0 12 -7 3 -9 12 -6 20 3 8 0 21 -7 29 -18 22 27 78 57 70 31 -7 72
14 79 42 7 28 40 31 49 4z m-935 -34 c0 -16 3 -18 12 -9 9 9 15 9 27 -1 12 -9
13 -9 7 0 -5 9 -2 11 8 7 9 -3 16 -1 16 5 0 6 12 11 28 12 15 0 36 4 47 8 11
5 28 3 38 -3 21 -13 22 -26 2 -26 -8 0 -15 -4 -15 -9 0 -4 -12 -7 -27 -4 -25
3 -26 2 -7 -6 32 -14 39 -32 16 -38 -14 -3 -19 -10 -14 -21 5 -15 4 -15 -11
-3 -21 17 -22 8 -2 -12 12 -13 12 -15 -5 -20 -11 -3 -19 -2 -18 2 3 23 -4 41
-13 36 -6 -4 -8 -13 -5 -21 3 -8 -1 -14 -10 -14 -11 0 -13 6 -9 20 4 11 2 20
-4 20 -6 0 -11 7 -11 15 0 10 -6 12 -17 8 -16 -6 -16 -5 -4 11 13 16 12 17
-12 11 -19 -5 -27 -3 -27 6 0 8 -3 25 -7 38 -4 17 -3 22 5 17 7 -4 12 -17 12
-29z m810 18 c0 -9 -9 -15 -25 -15 -16 0 -25 6 -25 15 0 9 9 15 25 15 16 0 25
-6 25 -15z m-142 -24 c-4 -18 -48 -29 -48 -11 0 17 24 38 38 32 7 -2 12 -12
10 -21z m-388 -42 c0 -4 -6 -12 -12 -16 -7 -4 -18 -17 -24 -28 -12 -22 -61
-32 -77 -16 -12 12 34 61 58 61 8 0 16 4 20 10 6 10 35 2 35 -11z m654 6 c3
-8 -5 -26 -17 -39 -22 -24 -22 -24 -41 -5 -19 19 -19 19 7 19 20 0 25 4 22 20
-4 23 20 28 29 5z m206 3 c0 -6 -8 -20 -17 -30 -16 -18 -16 -18 1 -12 15 6 17
3 12 -17 -6 -20 -5 -21 4 -6 6 9 16 17 22 17 7 0 6 -5 -2 -15 -7 -8 -9 -15 -6
-15 4 0 0 -7 -8 -16 -18 -17 -22 -39 -6 -29 6 3 10 2 10 -3 0 -19 -14 -21 -32
-5 -10 9 -33 16 -53 15 -19 -1 -38 4 -42 11 -10 16 -16 65 -5 50 5 -8 13 -9
22 -3 11 7 12 10 2 10 -7 0 -10 5 -7 10 3 6 13 10 21 10 8 0 12 -4 9 -10 -3
-6 1 -7 9 -4 9 3 16 10 16 16 0 5 4 7 9 4 5 -3 14 0 20 8 9 11 9 15 -1 19 -8
4 -7 6 5 6 9 1 17 -4 17 -11z m-1090 -63 c0 -20 -5 -25 -25 -25 -26 0 -29 7
-19 34 10 27 44 20 44 -9z m362 -21 c11 -24 9 -29 -15 -50 -48 -41 -73 -26
-44 27 30 59 41 63 59 23z m520 -13 c6 -10 18 -17 25 -14 7 3 13 -2 13 -12 0
-12 -5 -15 -20 -10 -15 5 -20 2 -20 -12 0 -14 -7 -10 -30 16 -17 18 -30 38
-30 42 0 17 50 9 62 -10z m-722 -30 c0 -28 -17 -35 -29 -13 -11 21 -6 32 16
32 7 0 13 -9 13 -19z m898 -21 c11 -17 10 -23 -3 -37 -15 -15 -18 -14 -38 6
-22 22 -22 22 -3 37 26 18 29 18 44 -6z m-228 -17 c13 3 20 0 20 -9 0 -17 -13
-17 -70 0 -39 12 -41 14 -20 18 14 2 31 0 37 -5 7 -5 22 -7 33 -4z m-720 -149
c11 -29 6 -44 -15 -44 -20 0 -28 17 -21 46 8 31 24 31 36 -2z"/>
<path d="M1190 826 c0 -8 7 -17 16 -20 8 -3 12 -10 9 -16 -3 -5 -1 -10 6 -10
6 0 9 8 6 20 -3 11 0 20 6 21 7 0 3 4 -8 9 -29 12 -35 12 -35 -4z"/>
<path d="M1257 817 c-4 -15 -16 -36 -27 -47 -18 -18 -19 -20 -2 -21 9 -1 21
-1 25 0 5 1 6 -6 3 -16 -3 -10 -1 -25 4 -33 9 -13 11 -13 19 0 7 9 6 19 -1 28
-9 10 -8 16 3 23 11 7 9 9 -8 9 -25 0 -29 10 -12 27 6 6 9 21 7 34 -3 23 -4
23 -11 -4z"/>
<path d="M2290 837 c0 -3 7 -13 15 -21 13 -13 14 -20 4 -38 -11 -21 -11 -22 4
-9 16 12 21 9 18 -11 0 -5 4 -8 9 -8 6 0 10 -5 10 -11 0 -6 -6 -9 -12 -6 -7 2
-24 7 -38 11 -25 6 -25 6 -2 -5 12 -7 22 -19 22 -28 0 -11 3 -12 12 -3 19 19
46 -3 42 -35 -4 -25 -3 -26 6 -8 10 19 10 19 6 -2 -2 -12 2 -27 10 -34 19 -16
19 17 0 51 -7 14 -29 54 -49 90 -29 54 -57 86 -57 67z"/>
<path d="M1495 820 c-19 -7 -19 -7 3 -14 15 -5 22 -15 22 -32 0 -21 3 -24 25
-18 29 7 31 -2 9 -35 -14 -19 -14 -25 -3 -32 9 -5 10 -9 2 -9 -25 0 -41 12
-36 30 10 37 -34 79 -52 50 -4 -6 -1 -9 6 -8 9 2 13 -10 14 -35 1 -21 7 -42
14 -46 21 -13 66 3 63 22 -2 11 4 17 15 17 24 1 66 33 69 54 3 21 -6 20 -21
-1 -11 -14 -13 -12 -23 15 -14 40 -26 42 -17 2 l6 -30 -28 15 c-15 8 -32 25
-38 38 -8 18 -15 22 -30 17z"/>
<path d="M710 806 c0 -2 5 -17 10 -32 8 -19 7 -31 -2 -42 -9 -11 -9 -14 -1 -9
7 4 17 0 23 -10 10 -15 11 -16 6 -1 -3 9 -8 33 -12 52 -3 20 -10 39 -15 42 -5
3 -9 3 -9 0z"/>
<path d="M1057 768 c-4 -20 -13 -39 -20 -41 -7 -3 -5 -6 5 -6 19 -1 33 34 26
66 -3 11 -7 4 -11 -19z"/>
<path d="M1183 786 c9 -23 -2 -68 -15 -60 -5 4 -8 14 -5 24 2 9 -4 22 -14 29
-16 9 -19 8 -19 -8 0 -11 6 -21 13 -24 8 -3 6 -11 -10 -27 l-21 -22 -16 28
c-8 16 -15 25 -15 19 -1 -5 3 -17 8 -25 6 -8 7 -19 3 -24 -8 -14 -10 -46 -2
-46 3 0 16 14 29 30 12 17 27 30 34 29 26 -3 37 2 37 15 0 8 8 13 18 11 9 -1
11 0 5 2 -7 3 -13 15 -13 28 0 13 -5 27 -12 31 -8 5 -9 2 -5 -10z"/>
<path d="M2180 761 c0 -8 100 -44 106 -38 2 2 -20 13 -51 24 -30 12 -55 18
-55 14z"/>
<path d="M1757 743 c-5 -7 -6 -13 -2 -13 3 0 1 -8 -4 -18 -7 -14 -6 -18 9 -19
10 -1 21 5 24 13 3 8 1 14 -4 14 -5 0 -10 8 -12 18 -3 12 -6 14 -11 5z"/>
<path d="M865 713 c-3 -14 -4 -28 0 -31 3 -3 5 -1 5 5 0 6 8 10 18 8 9 -1 11
0 5 2 -16 6 -17 20 -1 25 8 3 6 7 -4 10 -12 5 -18 -1 -23 -19z"/>
<path d="M2415 724 c3 -12 11 -41 19 -65 l13 -44 0 60 c1 33 -2 54 -4 47 -4
-10 -9 -8 -20 5 -13 17 -14 17 -8 -3z"/>
<path d="M764 705 c-2 -18 3 -25 17 -25 10 0 19 -4 19 -10 0 -5 9 -10 19 -10
11 0 23 5 26 10 3 6 -5 10 -19 10 -14 0 -32 10 -43 25 l-18 25 -1 -25z"/>
<path d="M2217 714 c-3 -3 -3 -13 0 -21 5 -12 7 -12 14 -1 7 10 9 11 9 0 0 -7
4 -10 10 -7 5 3 18 1 27 -4 17 -10 16 -10 -2 -11 -16 -1 -13 -4 10 -14 32 -14
45 -12 45 7 0 7 -4 6 -10 -3 -8 -13 -10 -13 -10 2 0 11 -17 26 -42 38 -48 23
-43 22 -51 14z"/>
<path d="M1605 690 c-11 -5 -15 -9 -10 -10 6 0 -2 -11 -17 -23 -25 -21 -26
-24 -16 -69 11 -45 29 -61 43 -38 9 15 35 12 29 -3 -3 -8 1 -14 9 -14 14 0 38
22 36 34 0 4 5 9 12 12 8 2 10 -6 7 -28 -4 -24 -1 -31 9 -27 10 4 11 1 5 -12
-5 -9 -7 -23 -5 -29 3 -7 -2 -16 -11 -19 -23 -9 -10 -23 15 -17 13 4 18 11 14
21 -3 8 2 26 11 39 16 25 12 59 -5 48 -6 -3 -8 8 -6 25 4 32 -3 38 -23 18 -9
-9 -12 -8 -12 8 0 21 20 57 20 37 0 -7 5 -13 11 -13 20 0 5 45 -16 46 -11 0
-33 6 -48 12 -16 7 -29 12 -30 11 -1 0 -11 -4 -22 -9z m55 -56 c0 -14 -8 -25
-21 -29 -12 -4 -18 -12 -15 -21 3 -8 1 -14 -3 -14 -16 0 -22 33 -10 59 15 33
49 36 49 5z"/>
<path d="M2073 688 c-7 -9 2 -25 34 -54 23 -22 43 -37 43 -32 0 5 5 6 10 3 6
-3 10 -1 10 4 0 6 -5 11 -11 11 -6 0 -8 8 -5 18 3 9 1 24 -5 32 -8 12 -9 11
-5 -5 3 -11 1 -27 -4 -35 -5 -8 -10 -10 -11 -5 -2 28 -9 47 -19 60 -15 18 -25
19 -37 3z"/>
<path d="M2216 640 c-14 -29 -14 -31 0 -26 9 3 19 6 23 6 9 0 8 37 -1 45 -3 4
-13 -8 -22 -25z"/>
<path d="M2042 617 c-1 -28 5 -50 18 -67 20 -26 22 -9 3 25 -15 26 12 48 42
33 15 -7 13 -4 -5 12 -52 43 -57 43 -58 -3z"/>
<path d="M2340 641 c0 -5 14 -18 30 -28 17 -9 30 -25 30 -35 0 -10 4 -18 9
-18 5 0 17 -3 27 -7 10 -4 1 12 -21 36 -43 46 -75 68 -75 52z"/>
<path d="M1531 618 c-1 -21 -7 -28 -31 -33 -17 -4 -28 -11 -25 -15 3 -5 12 -7
20 -3 9 3 15 -1 15 -11 0 -9 -6 -16 -13 -16 -19 0 -19 -47 0 -70 19 -21 43
-27 43 -9 0 5 -4 7 -10 4 -5 -3 -10 -2 -10 3 0 17 13 22 28 9 8 -6 17 -11 19
-9 10 7 43 0 38 -8 -3 -5 -1 -10 5 -10 7 0 9 8 5 21 -6 17 -3 20 16 17 12 -2
24 3 27 11 3 9 -1 11 -16 7 -15 -5 -20 -2 -18 10 2 25 -21 29 -29 5 -4 -12
-12 -18 -21 -14 -7 3 -14 1 -14 -4 0 -11 -30 -11 -48 1 -6 4 -12 12 -12 18 0
7 6 6 15 -2 13 -11 14 -8 9 19 -4 21 -3 31 5 31 7 0 9 -4 6 -10 -3 -5 1 -10
10 -10 10 0 13 5 9 12 -4 7 -11 28 -15 48 -6 29 -7 31 -8 8z"/>
<path d="M1921 589 c-1 -42 3 -58 14 -63 19 -7 19 23 0 79 l-13 40 -1 -56z"/>
<path d="M1805 601 c3 -11 0 -29 -7 -40 -7 -11 -8 -24 -4 -28 5 -4 11 -2 13 5
3 6 10 9 16 5 7 -4 8 0 4 11 -4 10 -7 29 -7 42 0 13 -5 24 -11 24 -6 0 -8 -8
-4 -19z"/>
<path d="M2200 559 c0 -5 7 -9 15 -9 7 0 19 -8 24 -17 9 -15 12 -16 20 -3 8
12 13 12 30 -4 25 -23 27 -36 4 -36 -13 0 -14 -3 -6 -11 9 -9 16 -8 27 4 15
14 14 18 -9 43 -13 14 -22 30 -19 35 3 5 1 9 -5 9 -5 0 -12 -6 -14 -12 -4 -9
-8 -9 -14 -3 -10 12 -53 15 -53 4z"/>
<path d="M1994 538 c9 -15 16 -40 16 -56 0 -17 5 -29 13 -29 9 0 12 9 9 26 -4
21 -2 24 9 14 18 -17 29 -16 29 2 0 9 -9 15 -22 15 -12 0 -33 12 -46 28 l-24
27 16 -27z"/>
<path d="M2407 526 c-15 -12 -16 -18 -6 -42 7 -16 13 -33 13 -39 1 -5 10 -11
21 -13 12 -2 16 0 9 5 -16 12 -24 79 -11 92 15 15 -4 13 -26 -3z"/>
<path d="M1835 519 c-4 -6 -4 -13 -1 -16 3 -4 6 -1 6 5 0 7 4 12 8 12 4 0 6
-15 4 -34 l-4 -34 37 12 c23 7 30 12 18 14 -39 7 -46 12 -34 26 6 7 8 16 4 19
-10 10 -31 8 -38 -4z"/>
<path d="M2121 510 c20 -16 21 -19 7 -20 -10 0 -18 5 -18 10 0 15 -17 12 -23
-4 -6 -15 49 -21 58 -5 7 11 -18 39 -35 39 -7 0 -2 -9 11 -20z"/>
<path d="M1280 509 c0 -5 -4 -7 -10 -4 -16 10 -12 -21 4 -34 11 -9 19 -9 37 1
17 10 23 10 26 0 3 -6 9 -10 14 -6 14 8 0 24 -21 24 -14 0 -18 5 -13 18 5 14
3 14 -11 -3 -15 -17 -17 -17 -12 -2 3 9 1 17 -4 17 -6 0 -10 -5 -10 -11z"/>
<path d="M1772 505 c-4 -5 -7 -13 -8 -17 -1 -5 -2 -11 -3 -14 0 -4 -8 -1 -16
6 -9 7 -15 8 -15 2 0 -13 48 -44 59 -38 5 3 14 -1 21 -9 7 -8 11 -15 9 -16 -2
-1 -16 -2 -31 -3 -21 -2 -28 1 -28 16 0 19 -15 24 -25 8 -3 -5 -1 -10 4 -10 6
0 11 -7 11 -15 0 -8 9 -15 19 -15 29 0 35 -17 10 -31 -19 -10 -21 -9 -15 6 5
14 4 16 -7 7 -8 -7 -17 -9 -20 -5 -4 3 -7 1 -7 -6 0 -8 -6 -11 -16 -7 -14 6
-15 4 -4 -9 9 -11 15 -12 20 -5 5 7 15 8 33 1 24 -9 27 -7 38 24 7 19 16 32
20 29 16 -9 2 24 -23 56 l-27 34 27 12 c25 11 26 12 4 11 -13 -1 -26 -6 -30
-12z"/>
<path d="M49 498 c-1 -5 -2 -11 -3 -15 -1 -5 -7 -17 -13 -28 -12 -19 -12 -18
-13 8 0 15 -4 27 -10 27 -14 0 -13 -6 6 -46 13 -27 14 -37 4 -49 -6 -8 -9 -19
-5 -25 4 -6 1 -18 -7 -27 -9 -12 -9 -15 -1 -9 7 4 13 2 13 -3 0 -6 -4 -11 -9
-11 -12 0 -1 -42 17 -59 11 -12 16 -11 30 3 16 16 15 17 -6 22 -28 8 -29 30
-1 37 l21 6 -21 22 c-23 25 -27 39 -10 39 7 0 9 9 6 21 -3 12 2 28 13 39 16
16 17 21 5 37 -8 10 -15 15 -16 11z"/>
<path d="M1643 454 c-18 -19 -16 -23 12 -34 31 -12 31 -21 2 -48 -21 -20 -25
-20 -43 -7 -16 13 -17 16 -4 25 13 8 13 10 -2 10 -12 0 -18 -8 -18 -21 0 -13
-4 -18 -12 -13 -7 4 -8 3 -4 -5 4 -6 12 -9 17 -6 5 4 13 -2 17 -12 4 -10 15
-19 24 -19 10 -1 16 2 13 6 -3 5 -1 11 5 15 5 3 10 1 10 -5 0 -6 5 -8 10 -5 6
3 10 -5 10 -19 0 -14 10 -33 25 -44 13 -11 21 -22 18 -26 -3 -3 -1 -6 5 -6 7
0 12 9 12 20 0 11 -7 20 -16 20 -11 0 -14 6 -8 22 6 20 5 21 -10 9 -14 -12
-16 -11 -16 8 0 12 -7 24 -15 27 -8 4 -15 10 -15 15 0 5 7 9 15 9 8 0 15 3 15
8 0 4 3 17 6 30 5 16 2 22 -10 22 -9 0 -16 6 -16 14 0 21 -13 26 -27 10z"/>
<path d="M2301 456 c-14 -8 -32 -12 -40 -9 -11 3 -10 0 3 -11 27 -22 39 -20
53 9 6 14 10 25 10 25 -1 -1 -13 -7 -26 -14z"/>
<path d="M2358 444 c-14 -13 -9 -42 8 -48 23 -9 24 -8 23 22 0 24 -1 24 -8 7
-8 -19 -9 -19 -12 3 -2 13 -7 20 -11 16z"/>
<path d="M1940 430 c-20 -12 -3 -29 33 -32 15 -1 27 -5 27 -8 0 -4 7 -15 15
-26 13 -17 14 -16 4 14 -8 24 -17 32 -34 32 -13 0 -25 7 -27 15 -2 10 -7 12
-18 5z"/>
<path d="M2204 426 c-13 -33 0 -51 39 -52 36 -1 37 0 20 18 -9 10 -23 16 -31
13 -10 -4 -13 0 -9 15 6 23 -11 28 -19 6z"/>
<path d="M1866 418 c12 -21 48 -58 57 -58 4 0 7 7 7 15 0 8 -5 15 -11 15 -5 0
-7 4 -4 10 3 6 -1 7 -9 4 -9 -4 -18 1 -22 10 -3 9 -10 16 -16 16 -5 0 -6 -6
-2 -12z"/>
<path d="M1305 380 c-3 -5 -2 -10 3 -10 15 0 21 -25 10 -41 -8 -11 -9 -11 -4
3 3 10 1 20 -3 23 -5 2 -11 -11 -13 -30 l-4 -35 27 26 c23 22 27 23 33 8 4 -9
9 -14 13 -10 4 3 -6 19 -20 34 -15 16 -24 31 -20 35 3 4 1 7 -5 7 -6 0 -14 -4
-17 -10z"/>
<path d="M1519 373 c-2 -38 -7 -79 -10 -93 -3 -9 5 -16 20 -18 15 -2 21 0 16
7 -3 7 3 20 16 30 12 10 19 24 16 32 -4 10 -8 8 -12 -8 -4 -13 -13 -23 -20
-23 -15 0 -29 44 -15 48 6 2 8 8 4 13 -3 5 0 9 5 9 6 0 11 5 11 10 0 18 -30
11 -31 -7z"/>
<path d="M1825 358 c3 -17 8 -34 13 -37 4 -3 7 -16 6 -29 -1 -12 3 -25 9 -29
6 -3 7 -1 4 4 -4 6 2 18 12 27 18 17 20 17 31 -5 11 -20 10 -21 -6 -15 -15 5
-16 4 -7 -5 16 -16 32 -3 26 21 -5 19 -16 25 -37 21 -15 -3 -36 33 -23 41 7 4
7 11 -2 22 -21 25 -30 19 -26 -16z"/>
<path d="M2286 365 c-2 -7 5 -16 17 -19 33 -9 37 -7 31 8 -7 19 -42 27 -48 11z"/>
<path d="M675 360 c-8 -13 22 -80 36 -80 7 0 5 8 -6 20 -15 17 -16 20 -2 20
13 0 13 4 4 25 -13 26 -22 31 -32 15z"/>
<path d="M2395 350 c-3 -5 -4 -14 -1 -19 4 -5 0 -12 -6 -14 -10 -4 -10 -6 0
-6 7 -1 10 -6 7 -12 -4 -6 2 -13 14 -16 12 -3 21 -9 21 -14 0 -5 5 -9 10 -9
18 0 10 22 -10 27 -11 3 -17 9 -14 14 3 5 -1 9 -8 9 -9 0 -9 3 2 10 12 7 12
10 1 10 -7 0 -11 6 -7 15 6 17 0 20 -9 5z"/>
<path d="M1900 340 c0 -5 9 -10 19 -10 11 0 22 -6 24 -12 3 -8 6 -6 6 4 1 12
6 15 18 11 11 -4 14 -3 9 5 -9 15 -76 16 -76 2z"/>
<path d="M2046 342 c-16 -2 -35 -10 -43 -17 -21 -21 -15 -28 9 -11 12 9 32 13
44 10 12 -3 25 -1 28 4 9 14 -3 18 -38 14z"/>
<path d="M2106 322 c8 -31 -12 -52 -50 -53 -18 -1 -23 -3 -13 -6 11 -3 16 -11
13 -19 -4 -9 2 -14 17 -14 17 0 19 2 7 10 -8 5 -12 10 -10 12 40 26 50 28 51
11 0 -16 2 -15 9 2 5 11 9 27 9 35 -1 12 -2 12 -6 1 -4 -10 -10 -5 -19 15 -10
20 -12 22 -8 6z"/>
<path d="M1479 308 c0 -13 -3 -17 -6 -10 -2 6 -9 12 -14 12 -12 0 -12 -27 0
-34 18 -11 41 6 41 30 0 30 -20 32 -21 2z"/>
<path d="M580 305 c0 -8 3 -15 8 -15 4 0 6 -20 4 -45 -3 -36 -1 -45 12 -45 28
0 19 103 -10 114 -8 3 -14 -1 -14 -9z"/>
<path d="M1602 297 c-12 -7 -19 -17 -15 -22 4 -4 0 -5 -10 -2 -11 4 -16 3 -12
-3 3 -6 12 -10 20 -10 11 0 12 -7 5 -31 -5 -18 -7 -29 -3 -25 4 3 15 -1 25
-11 17 -15 19 -15 33 3 24 32 25 54 4 54 -10 0 -19 5 -19 10 0 6 -7 10 -15 10
-8 0 -15 5 -15 11 0 5 4 8 9 5 5 -3 11 1 15 9 6 18 7 18 -22 2z m36 -55 c17
-11 4 -45 -15 -38 -8 3 -17 6 -19 6 -2 0 -4 9 -4 20 0 21 16 26 38 12z"/>
<path d="M80 281 c0 -12 6 -21 16 -21 9 0 14 7 12 17 -5 25 -28 28 -28 4z"/>
<path d="M535 280 c-4 -6 0 -10 7 -10 17 0 15 -57 -2 -73 -12 -10 -12 -9 -1 6
16 20 11 21 -24 5 l-26 -11 32 -34 33 -33 -27 -23 c-16 -13 -43 -24 -63 -25
-32 -2 -36 0 -31 16 8 34 -7 47 -34 29 -16 -12 -26 -13 -35 -6 -16 13 -30 5
-37 -20 -4 -17 -1 -19 24 -14 18 3 29 1 29 -6 0 -18 18 -13 23 6 4 17 5 17 6
1 0 -10 7 -18 15 -18 16 0 31 -34 21 -50 -3 -5 -1 -10 5 -10 6 0 13 7 16 15 9
23 91 18 97 -6 7 -26 25 -24 32 4 5 19 13 23 48 24 48 2 73 -12 56 -33 -9 -11
-7 -14 10 -14 18 0 21 6 20 38 0 30 -2 33 -9 17 -5 -11 -9 -14 -9 -8 -1 7 -7
12 -13 10 -7 -1 -14 8 -16 20 -3 18 1 21 17 18 13 -2 18 1 15 9 -3 7 -15 13
-27 12 -16 -1 -22 -7 -21 -25 1 -23 0 -23 -13 -6 -7 11 -13 14 -13 7 0 -15
-60 -42 -85 -38 -11 1 -22 11 -23 21 -2 9 0 15 6 11 5 -3 13 6 16 20 5 18 11
24 23 20 9 -4 27 1 40 10 24 15 24 16 7 33 -17 16 -20 16 -41 -9 -21 -25 -22
-25 -37 -5 -14 19 -13 21 9 29 24 10 36 46 15 46 -6 0 -8 10 -4 24 6 24 -19
45 -31 26z"/>
<path d="M1330 265 c-13 -34 -13 -58 0 -50 6 3 11 21 11 38 l1 32 7 -29 c4
-20 13 -30 30 -33 18 -2 22 0 17 13 -3 8 -6 18 -6 20 0 2 -7 4 -15 4 -8 0 -14
5 -12 11 5 24 -23 19 -33 -6z"/>
<path d="M1983 283 c-9 -3 -9 -13 1 -41 7 -20 11 -42 9 -49 -2 -6 1 -14 7 -18
6 -3 10 -3 9 2 -4 23 3 30 29 26 l27 -3 -25 12 c-14 7 -31 19 -39 27 -13 12
-13 15 2 26 13 9 14 14 5 17 -7 3 -18 3 -25 1z"/>
<path d="M638 273 c6 -3 12 -18 12 -34 0 -18 4 -28 10 -24 6 4 8 11 5 16 -3 5
1 6 11 2 14 -5 15 -3 6 14 -6 11 -9 23 -6 25 3 3 -8 5 -23 5 -15 0 -22 -2 -15
-4z"/>
<path d="M1767 263 c-4 -3 -7 -19 -7 -35 0 -23 4 -29 17 -26 10 2 18 12 18 25
0 13 5 23 10 23 6 0 10 -4 10 -10 0 -5 5 -9 10 -7 12 3 8 19 -8 29 -15 10 -42
10 -50 1z"/>
<path d="M1040 252 c0 -15 31 -52 44 -52 15 0 59 -74 49 -84 -3 -3 -1 -6 6 -6
7 0 11 -6 8 -14 -3 -8 2 -16 14 -19 16 -4 19 -2 14 11 -4 9 -9 28 -10 41 -2
14 -11 28 -19 33 -9 5 -16 16 -16 24 0 8 4 12 10 9 6 -3 7 1 4 9 -3 9 -14 16
-24 16 -9 0 -29 9 -43 20 -27 21 -37 25 -37 12z"/>
<path d="M1281 224 c0 -30 2 -34 8 -19 8 19 8 19 15 -2 7 -23 36 -33 36 -13 0
6 -7 10 -15 10 -8 0 -15 8 -15 19 0 10 -7 24 -15 31 -13 11 -15 7 -14 -26z"/>
<path d="M1460 250 c0 -4 7 -13 15 -20 8 -7 12 -16 9 -21 -6 -10 46 -12 70 -3
9 3 16 10 16 16 0 5 -4 6 -10 3 -5 -3 -10 -1 -10 4 0 6 -4 11 -10 11 -5 0 -9
-3 -7 -7 2 -9 -6 -13 -28 -13 -8 0 -15 8 -15 18 0 10 -7 19 -15 19 -8 0 -15
-4 -15 -7z"/>
<path d="M1872 232 c-18 -6 -14 -19 8 -25 13 -3 20 0 20 9 0 8 5 14 10 14 6 0
10 -9 10 -20 0 -15 7 -20 24 -20 14 0 27 4 30 9 4 5 -3 7 -15 4 -18 -5 -20 -3
-14 16 6 20 3 22 -27 19 -19 -1 -40 -4 -46 -6z"/>
<path d="M2130 214 c0 -10 6 -14 14 -11 10 4 13 1 9 -9 -3 -8 1 -14 11 -14 12
0 16 -10 17 -37 0 -21 3 -32 6 -25 2 6 9 10 14 6 5 -3 9 -1 9 5 0 5 -4 13 -10
16 -5 3 -10 15 -10 26 0 10 -4 19 -9 19 -5 0 -11 9 -14 20 -6 24 -37 27 -37 4z"/>
<path d="M1670 193 c-19 -19 -21 -28 -12 -46 6 -12 11 -16 11 -9 1 7 6 10 12
6 8 -5 8 -1 0 14 -9 18 -8 22 12 28 12 4 28 7 36 5 20 -4 4 16 -17 21 -11 3
-28 -4 -42 -19z"/>
<path d="M2110 211 c0 -8 -7 -10 -20 -6 -21 7 -28 -9 -9 -20 6 -4 8 -13 5 -21
-6 -17 9 -27 45 -29 24 -1 26 0 16 17 -7 10 -20 21 -30 24 -14 5 -16 9 -6 20
6 8 9 17 5 21 -3 3 -6 1 -6 -6z"/>
<path d="M862 158 c1 -44 4 -55 14 -51 8 3 14 13 14 23 0 9 12 29 26 44 l27
26 -28 0 c-19 0 -26 -4 -22 -13 3 -8 1 -20 -3 -28 -10 -14 -13 -8 -23 36 -3
11 -5 -6 -5 -37z"/>
<path d="M1017 203 c-10 -10 -8 -33 3 -33 5 0 7 7 3 16 -5 13 4 10 33 -10 52
-35 63 -33 21 4 -35 30 -48 35 -60 23z"/>
<path d="M1359 192 c-8 -10 -23 -24 -34 -31 -19 -12 -19 -12 3 -8 12 3 28 -1
36 -8 8 -8 18 -10 27 -4 12 7 11 9 -2 9 -21 0 -34 31 -17 41 7 4 10 11 6 14
-3 4 -12 -2 -19 -13z"/>
<path d="M1812 198 c3 -7 15 -14 27 -14 28 -2 21 20 -8 24 -16 3 -22 -1 -19
-10z"/>
<path d="M678 193 c-11 -3 -18 -14 -18 -29 0 -25 7 -29 25 -16 8 6 20 55 12
51 -1 -1 -10 -3 -19 -6z"/>
<path d="M1532 172 c6 -7 17 -11 25 -8 7 3 13 -1 13 -11 0 -14 2 -14 20 2 20
18 20 18 19 -1 -4 -39 1 -62 16 -68 11 -4 15 2 15 24 0 21 -5 30 -16 30 -14 0
-14 3 -4 15 12 15 4 20 -22 16 -5 0 -8 3 -8 7 0 5 -15 8 -34 8 -27 -1 -32 -4
-24 -14z"/>
<path d="M1871 169 c-1 -30 6 -40 25 -32 18 7 18 23 0 23 -8 0 -17 8 -19 18
-3 11 -5 8 -6 -9z"/>
<path d="M1427 173 c-23 -6 -17 -25 11 -39 12 -6 19 -14 16 -17 -4 -4 -1 -13
6 -22 9 -11 9 -15 1 -15 -7 0 -9 -5 -6 -11 5 -7 13 -5 24 6 9 9 25 22 36 30
20 15 20 15 0 8 -17 -6 -18 -4 -8 8 10 13 9 20 -8 38 -12 12 -24 20 -27 16 -4
-3 -2 -9 4 -13 14 -10 16 -62 2 -62 -6 0 -9 3 -6 6 4 3 0 17 -7 31 -8 15 -12
30 -9 35 5 8 0 9 -29 1z"/>
<path d="M1767 146 c-4 -9 3 -16 17 -20 19 -5 22 -11 18 -36 -3 -19 0 -30 8
-30 8 0 10 12 6 38 -3 20 -5 41 -6 45 0 5 -4 5 -10 2 -5 -3 -10 -1 -10 4 0 16
-17 13 -23 -3z"/>
<path d="M816 113 c9 -52 14 -54 14 -5 0 23 -5 42 -10 42 -7 0 -8 -14 -4 -37z"/>
<path d="M980 113 c-29 -27 -32 -33 -17 -39 27 -10 49 3 42 26 -7 22 5 26 22
9 13 -13 47 -4 39 10 -3 5 -15 7 -25 4 -11 -3 -21 1 -23 9 -2 9 -14 3 -38 -19z"/>
<path d="M2027 144 c-12 -13 6 -34 24 -29 11 4 19 2 19 -3 0 -5 7 -9 15 -9 23
0 18 11 -14 30 -32 19 -35 20 -44 11z"/>
<path d="M730 128 c0 -4 4 -8 10 -8 5 0 7 -6 5 -12 -5 -14 11 -45 19 -38 2 3
6 18 8 34 2 24 -1 29 -19 31 -13 1 -23 -2 -23 -7z"/>
<path d="M1285 110 c2 -35 9 -45 24 -36 6 4 6 16 -1 36 -13 39 -26 38 -23 0z"/>
<path d="M1207 109 c3 -11 11 -23 18 -25 7 -3 10 -14 7 -26 -3 -14 -1 -19 9
-16 18 6 21 85 3 85 -7 0 -10 -5 -7 -11 3 -6 0 -5 -8 2 -19 18 -28 15 -22 -9z"/>
<path d="M1692 110 c12 -18 13 -19 19 -2 5 12 9 5 14 -23 5 -22 10 -34 13 -27
3 10 7 10 20 0 13 -12 14 -10 3 10 -6 12 -16 22 -21 22 -6 0 -10 9 -10 20 0
15 -7 20 -25 20 -23 0 -24 -2 -13 -20z"/>
<path d="M166 98 c-3 -14 0 -18 9 -14 8 3 16 0 19 -7 2 -7 5 0 5 14 1 30 -25
36 -33 7z"/>
<path d="M1883 113 c9 -2 17 -13 17 -24 0 -10 3 -19 8 -20 4 0 17 -2 30 -5 25
-4 29 8 9 25 -10 8 -17 7 -25 -1 -9 -9 -12 -7 -12 10 0 16 -6 22 -22 21 -17
-1 -19 -2 -5 -6z"/>
<path d="M1380 80 c0 -5 5 -10 10 -10 6 0 10 -12 11 -27 0 -24 1 -25 8 -8 10
26 2 55 -15 55 -8 0 -14 -4 -14 -10z"/>
<path d="M1653 74 c0 -10 7 -14 18 -11 12 3 19 -3 24 -22 l7 -26 9 24 c11 27
10 29 -17 34 -10 1 -24 6 -30 9 -6 4 -11 0 -11 -8z"/>
<path d="M47 59 c-3 -12 0 -19 9 -19 8 0 14 5 14 10 0 6 7 10 15 10 8 0 15 4
15 9 0 18 -48 9 -53 -10z"/>
<path d="M1577 73 c-4 -6 -2 -24 5 -40 9 -22 12 -24 15 -10 5 17 13 17 61 0 6
-3 12 2 12 12 0 9 -4 14 -9 10 -5 -3 -12 -1 -15 3 -3 5 -16 7 -30 5 -18 -4
-25 0 -28 14 -2 12 -6 14 -11 6z"/>
<path d="M1981 77 c-2 -17 20 -47 35 -47 8 0 17 -7 20 -15 4 -8 10 -15 15 -15
5 0 -1 16 -13 35 -13 19 -28 33 -35 31 -6 -3 -14 0 -17 7 -2 7 -5 8 -5 4z"/>
<path d="M843 38 c-21 -28 -24 -38 -9 -38 8 0 18 9 21 21 8 25 2 34 -12 17z"/>
<path d="M977 43 c-14 -13 -6 -33 13 -33 11 0 20 4 20 9 0 13 -26 32 -33 24z"/>
<path d="M1109 26 c24 -26 53 -38 33 -13 -6 6 -10 17 -9 22 1 6 -9 12 -23 13
l-25 4 24 -26z"/>
</g>
</svg>
